
<svg width="22px" height="22px" viewBox="0 0 22 22" version="1.1" xmlns="http://www.w3.org/2000/svg" xmlns:xlink="http://www.w3.org/1999/xlink">
    <g id="Page-1" stroke="none" stroke-width="1" fill="none" fill-rule="evenodd">
        <g id="Artboard" transform="translate(-106.000000, -104.000000)" fill="#F23050">
            <g id="dribbble" transform="translate(106.000000, 104.000000)">
                <path d="M2.596,9.718 C5.188,9.933 7.67,9.413 9.725,8.238 C8.69113492,6.70232082 7.47976885,5.29392735 6.116,4.042 C4.21727309,5.37438324 2.94561711,7.42492851 2.596,9.718 L2.596,9.718 Z M5.694,1.938 C2.47573689,3.82145273 0.498521304,7.2711115 0.499999171,11 C0.499999171,16.799 5.201,21.5 10.9999992,21.5 C16.799,21.5 21.4999992,16.799 21.4999992,11 C21.4999992,5.201 16.799,0.499986294 10.9999992,0.499986294 C9.13479659,0.496979856 7.30276437,0.993140863 5.694,1.937 L5.694,1.938 Z M7.98,3.051 C9.24090083,4.27596355 10.3728247,5.62703428 11.358,7.083 C12.6050618,6.00704707 13.5726956,4.6448108 14.178,3.113 C13.1678754,2.70643151 12.0888741,2.49830445 11,2.49998972 C9.96846926,2.49884863 8.94538389,2.6859116 7.981,3.052 L7.98,3.051 Z M15.941,4.083 C15.1757688,5.92032812 13.9691251,7.54052116 12.428,8.8 C12.776,9.409 13.099,10.032 13.396,10.667 C15.279,9.934 17.316,9.596 19.411,9.769 C19.076415,7.48090988 17.8237345,5.42801599 15.942,4.084 L15.941,4.083 Z M19.464,11.781 C17.642,11.595 15.844,11.871 14.172,12.512 C14.8631671,14.3395142 15.3211131,16.2468948 15.535,18.189 C17.7691071,16.7795846 19.2207652,14.4114008 19.463,11.781 L19.464,11.781 Z M13.608,19.091 C13.4608482,17.1369833 13.0404215,15.2132533 12.359,13.376 C10.241,14.593 8.423,16.412 7.16,18.585 C8.34999039,19.1883974 9.66577296,19.5019237 11,19.5000088 C11.91,19.5000088 12.787,19.357 13.609,19.092 L13.608,19.091 Z M5.493,17.475 C6.957,15.001 9.083,12.903 11.585,11.516 C11.3345279,10.9805302 11.0643434,10.4545042 10.775,9.939 C8.361,11.331 5.475,11.943 2.529,11.718 C2.71692275,13.9534235 3.78265273,16.023399 5.493,17.475 L5.493,17.475 Z" id="Shape"></path>
            </g>
        </g>
    </g>
</svg>