
<svg width="20px" height="20px" viewBox="0 0 20 20" version="1.1" xmlns="http://www.w3.org/2000/svg" xmlns:xlink="http://www.w3.org/1999/xlink">
    <g id="Page-1" stroke="none" stroke-width="1" fill="none" fill-rule="evenodd">
        <g id="Artboard" transform="translate(-312.000000, -155.000000)" fill="#F23050">
            <path d="M322,157 C318.725709,157.0016 315.782913,158.998317 314.571542,162.040284 C313.360171,165.082251 314.124786,168.555332 316.501648,170.807332 C318.878511,173.059333 322.387761,173.635602 325.36,172.262 C325.684219,172.111591 326.064051,172.145576 326.356418,172.351153 C326.648785,172.55673 326.809269,172.902667 326.777418,173.258653 C326.745567,173.614639 326.526219,173.926591 326.202,174.077 C324.885238,174.686927 323.451161,175.001932 322,175 C316.477,175 312,170.523 312,165 C312,159.477 316.477,155 322,155 C327.523,155 332,159.477 332,165 L332,165.019 C331.958,167.209 331.26,168.684 330.233,169.599 C329.229,170.493 328.04,170.737 327.21,170.737 C326.018,170.737 324.971,170.117 324.372,169.183 C322.296,171.018 319.302,171.422 317.454,169.368 C315.528,167.228 316.065,163.655 318.12,161.372 C320.108,159.163 323.723,158.31 325.798,160.866 C325.985035,160.363477 326.53513,160.097906 327.044956,160.264002 C327.554783,160.430098 327.842873,160.968741 327.698,161.485 C327.106,163.561 326.408,165.618 325.885,167.712 C326.041998,168.315349 326.58656,168.736614 327.21,168.737 C327.69,168.737 328.358,168.591 328.903,168.106 C329.423,167.643 329.965,166.752 330,164.991 C329.995033,160.576237 326.414766,157 322,157 Z M324.353,165.914 C324.423,165.674 324.606,165.033 324.82,164.286 C325.053,163.466 324.75,162.68 324.112,161.97 C323.192,160.949 321.22,160.917 319.607,162.71 C317.984,164.512 317.925,166.901 318.941,168.03 C319.86,169.051 321.832,169.083 323.446,167.29 C323.819,166.876 324.17,166.446 324.353,165.914 L324.353,165.914 Z" id="Shape"></path>
        </g>
    </g>
</svg>