
<svg width="20px" height="20px" viewBox="0 0 20 20" version="1.1" xmlns="http://www.w3.org/2000/svg" xmlns:xlink="http://www.w3.org/1999/xlink">
    <g id="Page-1" stroke="none" stroke-width="1" fill="none" fill-rule="evenodd">
        <g id="Artboard" transform="translate(-150.000000, -165.000000)" fill="#F23050">
            <path d="M150,169 C150,166.790861 151.790861,165 154,165 L166,165 C168.209139,165 170,166.790861 170,169 L170,181 C170,183.209139 168.209139,185 166,185 L154,185 C151.790861,185 150,183.209139 150,181 L150,169 Z M154,167 C152.895431,167 152,167.895431 152,169 L152,181 C152,182.104569 152.895431,183 154,183 L160,183 L160,176 L159,176 C158.447715,176 158,175.552285 158,175 C158,174.447715 158.447715,174 159,174 L160,174 L160,172.5 C160,170.567003 161.567003,169 163.5,169 L164.1,169 C164.652285,169 165.1,169.447715 165.1,170 C165.1,170.552285 164.652285,171 164.1,171 L163.5,171 C163.102175,171 162.720644,171.158035 162.43934,171.43934 C162.158035,171.720644 162,172.102175 162,172.5 L162,174 L164.1,174 C164.652285,174 165.1,174.447715 165.1,175 C165.1,175.552285 164.652285,176 164.1,176 L162,176 L162,183 L166,183 C167.104569,183 168,182.104569 168,181 L168,169 C168,167.895431 167.104569,167 166,167 L154,167 Z" id="Shape"></path>
        </g>
    </g>
</svg>