
<svg width="20px" height="19px" viewBox="0 0 20 19" version="1.1" xmlns="http://www.w3.org/2000/svg" xmlns:xlink="http://www.w3.org/1999/xlink">
    <g id="Page-1" stroke="none" stroke-width="1" fill="none" fill-rule="evenodd">
        <g id="Artboard" transform="translate(-378.000000, -175.000000)" fill="#F23050">
            <path d="M397,177.958254 C397.009,178.565254 396.933,179.326254 396.866,179.881254 C396.844763,180.064604 396.811356,180.246338 396.766,180.425254 C397.622,182.010254 398,183.917254 398,186.000254 C398,188.468254 396.813,190.501254 394.964,191.887254 C393.132,193.260254 390.66,194.000254 388,194.000254 C385.34,194.000254 382.868,193.260254 381.036,191.887254 C379.187,190.501254 378,188.468254 378,186.000254 C378,183.917254 378.377,182.010254 379.235,180.425254 C379.189652,180.246336 379.156246,180.064602 379.135,179.881254 C379.066,179.326254 378.99,178.565254 379,177.958254 C379.01,177.275254 379.1,176.592254 379.199,175.914254 C379.245,175.600254 379.317,175.305254 379.658,175.119254 C380.006,174.929254 380.372,174.999254 380.733,175.102254 C381.951,175.447254 383.093,175.932254 384.167,176.512254 C385.3,176.173254 386.578,176.000254 388,176.000254 C389.422,176.000254 390.7,176.173254 391.832,176.513254 C392.921073,175.917858 394.072767,175.444973 395.266,175.103254 C395.627,175.000254 395.994,174.929254 396.341,175.119254 C396.681,175.305254 396.754,175.600254 396.801,175.914254 C396.899,176.592254 396.989,177.275254 396.999,177.958254 L397,177.958254 Z M396,186.000254 C396,184.313254 395.612,182.000254 393.5,182.000254 C392.548,182.000254 391.647,182.250254 390.747,182.500254 C389.848,182.750254 388.95,183.000254 388,183.000254 C387.05,183.000254 386.152,182.750254 385.253,182.500254 C384.353,182.250254 383.453,182.000254 382.5,182.000254 C380.394,182.000254 380,184.320254 380,186.000254 C380,187.764254 380.827,189.231254 382.236,190.287254 C383.66,191.356254 385.69,192.000254 388,192.000254 C390.31,192.000254 392.339,191.355254 393.764,190.287254 C395.173,189.230254 396,187.764254 396,186.000254 Z M386,186.500254 C386,187.880254 385.328,189.000254 384.5,189.000254 C383.672,189.000254 383,187.880254 383,186.500254 C383,185.120254 383.672,184.000254 384.5,184.000254 C385.328,184.000254 386,185.120254 386,186.500254 Z M391.5,189.000254 C392.328,189.000254 393,187.880254 393,186.500254 C393,185.120254 392.328,184.000254 391.5,184.000254 C390.672,184.000254 390,185.120254 390,186.500254 C390,187.880254 390.672,189.000254 391.5,189.000254 Z" id="Shape"></path>
        </g>
    </g>
</svg>