
<svg width="20px" height="20px" viewBox="0 0 20 20" version="1.1" xmlns="http://www.w3.org/2000/svg" xmlns:xlink="http://www.w3.org/1999/xlink">
    <g id="Page-1" stroke="none" stroke-width="1" fill="none" fill-rule="evenodd">
        <g id="Artboard" transform="translate(-254.000000, -155.000000)" fill="#F23050">
            <path d="M254,159 C254,156.790861 255.790861,155 258,155 L270,155 C272.209139,155 274,156.790861 274,159 L274,171 C274,173.209139 272.209139,175 270,175 L258,175 C255.790861,175 254,173.209139 254,171 L254,159 Z M258,157 C256.895431,157 256,157.895431 256,159 L256,171 C256,172.104569 256.895431,173 258,173 L270,173 C271.104569,173 272,172.104569 272,171 L272,159 C272,157.895431 271.104569,157 270,157 L258,157 Z M264,162 C262.343146,162 261,163.343146 261,165 C261,166.656854 262.343146,168 264,168 C265.656854,168 267,166.656854 267,165 C267,163.343146 265.656854,162 264,162 Z M259,165 C259,162.238576 261.238576,160 264,160 C266.761424,160 269,162.238576 269,165 C269,167.761424 266.761424,170 264,170 C261.238576,170 259,167.761424 259,165 L259,165 Z M269.5,161 C270.328427,161 271,160.328427 271,159.5 C271,158.671573 270.328427,158 269.5,158 C268.671573,158 268,158.671573 268,159.5 C268,160.328427 268.671573,161 269.5,161 Z" id="Shape"></path>
        </g>
    </g>
</svg>