<?xml version="1.0" encoding="UTF-8"?>
<svg width="169px" height="82px" viewBox="0 0 169 82" version="1.1" xmlns="http://www.w3.org/2000/svg" xmlns:xlink="http://www.w3.org/1999/xlink">
    <title>Artboard</title>
    <g id="Artboard" stroke="none" stroke-width="1" fill="none" fill-rule="evenodd">
        <g id="Group" transform="translate(1.000000, 0.000000)">
            <polygon id="Path" fill="#7E7A7A" points="30.5509593 0 43.2273741 0 12.4963485 81.837424 -2.60221081e-14 81.837424"></polygon>
            <polygon id="Path-2" fill="#F23050" points="83 0 83 82 98.9918478 82 98.9918478 24.4363297 118.388957 82 131.763487 82 150.998577 23.6128262 150.998577 57.138701 167.401009 57.138701 167.401009 0 143.401752 0 125.777414 56.5010158 107.21952 0"></polygon>
            <polygon id="Path-3" fill="#F23050" points="62.7863147 0 80.0776896 0 80.0776896 56.1009095 80.0776896 57.547932 80.0776896 59.1639735 79.8495145 60.9037787 79.5831317 61.8987714 79.3114421 63.2835758 79.0501354 64.522363 78.7637942 65.7959442 78.4287679 66.9068779 78.1484257 67.7115058 77.809477 68.5169592 77.3871179 69.4788091 76.9919854 70.257253 76.5778173 70.9964207 76.2331002 71.6258987 75.7622868 72.3498515 75.351349 72.9505506 74.9216064 73.5072559 74.3745353 74.1289495 73.7671272 74.8374513 73.14899 75.4617396 72.5044337 76.0244602 71.7305508 76.6966346 71.086456 77.2030949 70.1634034 77.8289165 69.3099171 78.3693453 68.4549311 78.9062356 67.6465535 79.3132674 66.8314845 79.7169966 65.947426 80.0977264 64.9655361 80.4401238 63.9456904 80.7748546 62.973376 81.0545047 61.994255 81.2738843 61.0542434 81.4429009 59.7970875 81.6304351 58.1957913 81.8156104 57.8423424 81.8549877 57.2219127 81.8963433 56.073495 81.9600888 54.8496429 82 54.1132228 82 53.4591969 82 53.0543163 82 52.811615 82 52.692627 82 51.9588013 81.9600888 51.1068726 81.8963433 50.5990601 81.8549877 50.1721039 81.8156104 49.6771851 81.7576545 49.2625275 81.7034605 48.7894287 81.6304351 48.3499756 81.5568528 47.8789215 81.4745323 47.6545868 81.4429009 47.3808899 81.3918217 46.996582 81.3158347 46.609436 81.2312522 46.0899658 81.1121939 45.5879364 80.9835105 45.0220795 80.8271061 44.4630432 80.6693445 43.9771576 80.5216449 43.4582062 80.3499526 42.9151611 80.1596497 42.408371 79.9613597 41.9175819 79.7743468 41.2510286 79.4821774 40.4858464 79.1210583 39.8249211 78.7787582 39.185699 78.427748 38.6865847 78.1193981 38.2904213 77.8741805 37.5731232 77.4088583 36.8834363 76.9182959 36.246764 76.4225838 35.7768154 76.0244602 35.7075043 75.9720963 35.5061646 75.8013712 35.1828003 75.5122431 34.7963257 75.156207 34.5314941 74.8941603 34.2774963 74.6337671 33.9708862 74.313798 33.680191 73.9893517 33.3834534 73.6389472 33.0939636 73.28444 32.8956451 73.0375563 32.6555023 72.7250283 32.4649658 72.4729187 32.2957153 72.2359098 31.9105377 71.6743609 31.6042633 71.2094065 31.3427582 70.7893174 31.0948639 70.3558904 30.8372955 69.9054907 30.6354065 69.5168977 30.3435974 68.9530557 29.9975433 68.2099711 29.8343964 67.8207073 29.6612549 67.4071545 29.5408478 67.1013501 29.4109344 66.747498 29.272049 66.3362072 29.1599274 65.9934935 29.0676575 65.6825567 28.9659424 65.3430722 28.8657379 64.9726687 28.7714844 64.5986928 28.6525116 64.0844896 28.5626526 63.6664908 28.4892578 63.2835758 28.42659 62.9709702 28.3510284 62.508231 28.2879791 62.0634317 28.2084351 61.5273887 28.1504211 60.9691938 28.0980835 60.4454123 28.0511017 59.8509009 28.021759 59.3797846 28 58.8190937 28 50.2693692 43.4582062 50.2693692 43.5906079 50.2693692 43.5906079 54.8765593 43.5906079 55.5740836 43.7319818 57.384442 43.8655192 58.3935413 43.9771576 59.046191 44.0665501 59.4937791 44.2011294 60.0970158 44.4006202 60.9037787 44.5388232 61.3146036 44.7187001 61.8321201 44.9143406 62.3049473 45.1479858 62.7869438 45.3862061 63.214387 45.7160635 63.7451945 46.2132956 64.4118299 46.609436 64.8289459 47.0926586 65.2720419 47.4992049 65.5903319 47.8789215 65.8557357 48.2029036 66.056722 48.584808 66.2627561 48.9880475 66.4560085 49.3467595 66.6128612 49.7598286 66.747498 50.2891315 66.9068779 51.1068726 67.1013501 51.9588013 67.2016954 52.374115 67.236055 52.7796936 67.2604689 53.1786194 67.2828547 53.5577087 67.2828547 53.8536835 67.2828547 54.2819977 67.2604689 54.726059 67.236055 55.1828461 67.2016954 55.586853 67.1581649 55.9526215 67.1013501 56.2082214 67.0541605 56.5308685 66.9905286 56.7894287 66.927427 57.1109924 66.8400677 57.3083344 66.7806634 57.6757812 66.6525884 58.0781097 66.4815201 58.1957913 66.4284337 58.3860779 66.3362072 58.6116943 66.2092866 58.7966156 66.0943935 59.0762939 65.9023122 59.3013458 65.7386851 59.5592957 65.5356839 59.8649597 65.2720419 60.0674133 65.0835682 60.2485199 64.8797402 60.404541 64.7167526 60.591629 64.4844081 60.7197876 64.3248057 60.9457855 64.0033546 61.1298828 63.7115277 61.292984 63.4220095 61.4448853 63.1264698 61.6310425 62.7085023 61.7550659 62.3755229 61.9413605 61.8521937 62.0489044 61.4909161 62.1513062 61.1015588 62.2485199 60.7077242 62.345108 60.2664817 62.4234467 59.7720903 62.4911652 59.3399425 62.5445862 58.8390928 62.5813599 58.3660108 62.6067657 57.985249 62.6352386 57.547932 62.6678009 56.9362352 62.6911163 56.3721748 62.7164917 55.7450284 62.7164917 55.4256209 62.7164917 54.9393415 62.7863147 43.1576051 62.7863147 9.62352412"></polygon>
            <polygon id="Path-4" fill="#F23050" points="151 68 167.402432 68 167.402432 82 151 82"></polygon>
        </g>
    </g>
</svg>