
<svg width="20px" height="20px" viewBox="0 0 20 20" version="1.1" xmlns="http://www.w3.org/2000/svg" xmlns:xlink="http://www.w3.org/1999/xlink">
    <g id="Page-1" stroke="none" stroke-width="1" fill="none" fill-rule="evenodd">
        <g id="Artboard" transform="translate(-146.000000, -104.000000)" fill="#F23050">
            <g id="linkedin" transform="translate(146.000000, 104.000000)">
                <path d="M4,0 C1.790861,0 0,1.790861 0,4 L0,16 C0,18.209139 1.790861,20 4,20 L16,20 C18.209139,20 20,18.209139 20,16 L20,4 C20,1.790861 18.209139,0 16,0 L4,0 Z M2,4 C2,2.8954305 2.8954305,2 4,2 L16,2 C17.1045695,2 18,2.8954305 18,4 L18,16 C18,17.1045695 17.1045695,18 16,18 L4,18 C2.8954305,18 2,17.1045695 2,16 L2,4 Z M7,9 C7,8.44771525 6.55228475,8 6,8 C5.44771525,8 5,8.44771525 5,9 L5,15 C5,15.5522847 5.44771525,16 6,16 C6.55228475,16 7,15.5522847 7,15 L7,9 Z M7.5,5.5 C7.5,6.32842712 6.82842712,7 6,7 C5.17157288,7 4.5,6.32842712 4.5,5.5 C4.5,4.67157288 5.17157288,4 6,4 C6.82842712,4 7.5,4.67157288 7.5,5.5 Z M10,7.99999999 C10.34,7.99999999 10.64,8.17 10.82,8.428 C11.3354035,8.14710423 11.913022,7.99999999 12.5,7.99999999 C14.66,7.99999999 16,9.926 16,11.571 L16,15 C16,15.5522847 15.5522847,16 15,16 C14.4477153,16 14,15.5522847 14,15 L14,11.57 C14,10.802 13.34,9.999 12.5,9.999 C11.976,9.999 11.397,10.284 11,10.962 L11,15 C11,15.5522847 10.5522847,16 10,16 C9.44771525,16 9,15.5522847 9,15 L9,8.99999999 C9,8.44771525 9.44771525,7.99999999 10,7.99999999 Z" id="Shape"></path>
            </g>
        </g>
    </g>
</svg>