<?xml version="1.0" encoding="utf-8"?>
<!-- Generator: Adobe Illustrator 24.0.1, SVG Export Plug-In . SVG Version: 6.00 Build 0)  -->
<svg version="1.1" id="Layer_1" xmlns="http://www.w3.org/2000/svg" xmlns:xlink="http://www.w3.org/1999/xlink" x="0px" y="0px"
	 viewBox="0 0 97.8 21.6" style="enable-background:new 0 0 97.8 21.6;" xml:space="preserve">
<style type="text/css">
	.st0{fill:#242C61;}
</style>
<g>
	<g>
		<path class="st0" d="M28.9,6.6c1.5,0,2.9,0.6,3.9,1.6c0.4-1.1,1-2.1,1.6-2.9c-1.5-1.2-3.4-1.9-5.5-1.9c-5,0-9,4.1-9,9.1
			c0,5,4,9.1,9,9.1c2.1,0,4-0.7,5.5-1.9c-0.7-0.9-1.2-1.9-1.6-2.9c-1,1-2.4,1.6-3.9,1.6c-3.2,0-5.7-2.6-5.7-5.8
			C23.1,9.3,25.7,6.6,28.9,6.6z"/>
		<path class="st0" d="M10.2,0C9.7,0,9.2,0.4,8.9,0.9L0,20.9h3.6L4.8,18h10.8l1.3,2.9h3.6L11.5,0.9C11.3,0.4,10.8,0,10.2,0z
			 M6.3,14.8l4-8.9l4,8.9H6.3z"/>
		<path class="st0" d="M52.9,12.5c0-5-3.8-8.9-8.6-9.1c0,0,0,0-0.1,0c-0.2,0-0.2,0.1-0.1,0.2c0,0,0,0,0,0.1c0.3,0.7,1.1,2.3,2.6,3.5
			c1.8,1.5,3,3.2,3,5.4c0,2.8-2.1,5.8-5.7,5.8c-3.5,0-5.7-3-5.7-5.8c0-2.2,1.1-3.9,3-5.4c1.5-1.2,2.3-2.9,2.6-3.5
			c0.1-0.1,0-0.2-0.1-0.2h0c-4.9,0.1-8.8,4.2-8.8,9.1c0,4.1,3.4,8.8,8.9,8.8c2.5,0,4.5-0.8,6.1-2l1.7,1.6h4.9L52,16.5
			C52.6,15.3,52.9,13.9,52.9,12.5z"/>
		<rect x="74.7" y="3.7" class="st0" width="3.4" height="17.2"/>
		<path class="st0" d="M68.1,12.3c0,3.6-1.8,5.8-4.7,5.8c-2.9,0-4.7-2.2-4.7-5.8V3.7h-3.4l0,8.6c0,5.3,3.4,9.1,8.1,9.1
			c4.7,0,8.1-3.8,8.1-9.1V3.7h-3.4L68.1,12.3z"/>
		<path class="st0" d="M94.4,3.7v2.6l-0.6-0.7c-1.6-1.6-3.3-2.5-5.3-2.5c-2.3,0-4.2,0.9-5.7,2.6c-1.5,1.7-2.3,3.9-2.3,6.5
			c0,2.6,0.8,4.9,2.3,6.6c1.5,1.7,3.5,2.6,5.8,2.6c1.8,0,3.6-0.8,5.2-2.3l0.6-0.6v2.4h3.4V3.7H94.4z M93.2,16.7
			c-1,1.1-2.3,1.7-4,1.7c-1.5,0-2.8-0.6-3.8-1.8c-1-1.1-1.5-2.6-1.5-4.4c0-1.7,0.5-3.1,1.5-4.3c1-1.2,2.3-1.7,3.8-1.7
			c1.6,0,2.9,0.6,3.9,1.7c1,1.2,1.5,2.6,1.5,4.4C94.6,14.1,94.1,15.6,93.2,16.7z"/>
	</g>
</g>
</svg>
