
<svg width="20px" height="20px" viewBox="0 0 20 20" version="1.1" xmlns="http://www.w3.org/2000/svg" xmlns:xlink="http://www.w3.org/1999/xlink">
    <g id="Page-1" stroke="none" stroke-width="1" fill="none" fill-rule="evenodd">
        <g id="Artboard" transform="translate(-388.000000, -135.000000)" fill="#F23050">
            <path d="M392,135 C389.790861,135 388,136.790861 388,139 L388,151 C388,153.209139 389.790861,155 392,155 L404,155 C406.209139,155 408,153.209139 408,151 L408,139 C408,136.790861 406.209139,135 404,135 L392,135 Z M390,139 C390,137.895431 390.895431,137 392,137 L404,137 C405.104569,137 406,137.895431 406,139 L406,151 C406,152.104569 405.104569,153 404,153 L392,153 C390.895431,153 390,152.104569 390,151 L390,139 Z M398,140.5 C398,139.947715 397.552285,139.5 397,139.5 C396.447715,139.5 396,139.947715 396,140.5 L396,142 L395,142 C394.447715,142 394,142.447715 394,143 C394,143.552285 394.447715,144 395,144 L396,144 L396,146.89 C396,149.335 398.442,151.027 400.73,150.167 L401.346,149.937 C401.863215,149.742872 402.125128,149.166215 401.931,148.649 C401.736872,148.131785 401.160215,147.869872 400.643,148.064 L400.027,148.294 C399.566731,148.466719 399.05104,148.402938 398.646721,148.123286 C398.242402,147.843633 398.000778,147.383609 398,146.892 L398,144 L400.5,144 C401.052285,144 401.5,143.552285 401.5,143 C401.5,142.447715 401.052285,142 400.5,142 L398,142 L398,140.5 Z" id="Shape"></path>
        </g>
    </g>
</svg>